<svg width="21" height="23" viewBox="0 0 21 23" fill="none" xmlns="http://www.w3.org/2000/svg">
<path d="M16.7016 10.6023C17.3922 9.40837 17.6236 7.96132 17.3448 6.57944C17.0661 5.19756 16.3001 3.99405 15.2153 3.23366C14.1305 2.47326 12.8159 2.21828 11.5605 2.5248C10.3052 2.83133 9.21199 3.67424 8.52143 4.86813L8.48412 4.92285L8.45486 4.98321C7.78513 6.16534 7.56405 7.58983 7.83924 8.94988C7.87559 9.13656 7.92196 9.3207 7.9781 9.50135L4.54553 18.0938C4.44152 18.3538 4.42562 18.6462 4.50072 18.918C4.57582 19.1897 4.73694 19.4229 4.95484 19.5752L6.10506 20.3814C6.32255 20.5344 6.58263 20.5965 6.83811 20.5564C7.09358 20.5163 7.32753 20.3768 7.49749 20.1631L13.1179 13.1042C13.2903 13.0838 13.4615 13.0521 13.6305 13.0094C14.8664 12.7086 15.9454 11.8855 16.6351 10.7173L16.6724 10.6626L16.7016 10.6023ZM16.2642 6.89273C16.4418 7.76835 16.3549 8.6838 16.0166 9.49994L9.71854 5.08517C10.1742 4.49876 10.7694 4.0639 11.4373 3.82947C12.1052 3.59504 12.8193 3.57033 13.4994 3.75813C14.1794 3.94592 14.7984 4.33877 15.2868 4.89251C15.7753 5.44626 16.1137 6.13895 16.2642 6.89273ZM6.68367 19.3811L5.53345 18.5748L8.61413 10.8741C9.35052 12.0188 10.4652 12.8002 11.7189 13.0505L6.68367 19.3811ZM8.89235 8.69273C8.71472 7.81711 8.80165 6.90166 9.13993 6.08552L9.71854 5.08517L16.0166 9.49994C15.561 10.0864 14.3871 11.5216 13.7192 11.756C13.0513 11.9904 12.3372 12.0151 11.6572 11.8273C10.9771 11.6395 10.3581 11.2467 9.86966 10.6929C9.38124 10.1392 9.04279 9.44651 8.89235 8.69273Z" fill="#C4C4C4"/>
</svg>
